{"asset":{"version":"2.0","generator":"VECTARY"},"nodes":[{"translation":[0.0003032455420470903,-0.02982493935187609,-0.0005148185202450809],"scale":[0.001,0.001,0.001],"rotation":[-0.7071067811865475,0,0,0.7071067811865476],"name":"Group","children":[1,2,3,4,5,6,7,8,9,10,11,12,13]},{"translation":[-50.27381943416175,0.08416129342987855,46.89781624629787],"scale":[0.10000000000000002,0.1,1],"rotation":[-0.4875787453762522,0.512120070937783,0.5121200709377806,-0.48757874537625456],"name":"sasIconsasIcon","mesh":0},{"translation":[-44.4090816996805,-24.063989772471462,16.774541588777915],"scale":[0.09864267676767675,0.09765625000000001,1],"rotation":[-0.3783003191968168,-0.5974017647241985,0.5974017647241985,0.3783003191968166],"name":"threeJsIconthreeJsIcon","mesh":1},{"translation":[-1.277717461013406,-50.466945595041025,15.193427058867137],"scale":[0.09765625,0.12254901960784312,1],"rotation":[0.7068938121598192,-0.017353337723864933,-0.01735333772386493,0.7068938121598188],"name":"bootstrapIconbootstrapIcon","mesh":2},{"translation":[-27.25827589094349,-42.58187585888824,46.57687238682127],"scale":[0.10546875000000001,0.10546874999999999,1],"rotation":[0.6814926346998248,-0.18859424394686886,-0.1885942439468687,0.6814926346998249],"name":"cssIconcssIcon","mesh":3},{"translation":[0,0,-20],"scale":[1.4326647564469916,1.4144271570014144,1],"rotation":[0,0,0,1],"name":"Plane","mesh":4},{"translation":[28.009884531204865,-41.691800484700096,44.39967288149581],"scale":[0.09765625,0.09765624999999997,0.9999999999999998],"rotation":[0.6714178078803743,0.22180650860854578,0.22180650860854573,0.6714178078803742],"name":"gitHubIcon","mesh":5},{"translation":[-41.59429318426551,27.734907129510514,17.026635731470016],"scale":[0.10546875,0.10546875,1],"rotation":[-0.3485317945373519,0.6152443321125137,0.6152443321125138,-0.3485317945373517],"name":"htmlIconhtmlIcon","mesh":6},{"translation":[-24.77901665395471,43.038248079864715,48.25798200299972],"scale":[0.09765625,0.09765624999999999,1],"rotation":[-0.18859424394686886,0.6814926346998248,0.6814926346998249,-0.18859424394686872],"name":"mongoDBIconmongoDBIcon","mesh":7},{"translation":[-5.192304822401152,49.24616688027059,15.44229896265734],"scale":[0.09765624999999999,0.09933326309769275,0.9999999999999999],"rotation":[-0.05201789161638296,0.7051908528560094,0.70519085285601,-0.05201789161638282],"name":"mySQLIcon","mesh":8},{"translation":[44.59083192714648,-22.39739535950044,12.529595789165022],"scale":[0.09765624999999999,0.0996168582375479,1],"rotation":[0.5974017643287459,0.3783003198213048,0.3783003198213047,0.597401764328746],"name":"nodeJsIconnodeJsIcon","mesh":9},{"translation":[49.067761101291595,7.003269649852523,46.137222676237876],"scale":[0.09765625,0.09765625,1],"rotation":[0.46186303064426226,0.5354274375899102,0.5354274375899103,0.4618630306442624],"name":"pNetIcon_1","mesh":10},{"translation":[36.94622496583729,32.750669120828135,14.500000000000007],"scale":[0.15624999999999997,0.20138888888888887,0.9999999999999999],"rotation":[0.286548834518869,0.6464439383549654,0.6464439383549649,0.28654883451886853],"name":"pythonIconpythonIcon","mesh":11},{"translation":[19.143579711001554,45.531284906796074,48.10274115891429],"scale":[0.09765625000000001,0.09882798988360758,1],"rotation":[-0.6899255599583958,0.15492811790018668,-0.15492811790018668,0.6899255599583956],"name":"reactIconreactIcon","mesh":12}],"materials":[{"pbrMetallicRoughness":{"baseColorFactor":[1,1,1,1],"baseColorTexture":{"index":0,"extensions":{"KHR_texture_transform":{"offset":[0,0],"scale":[1,1],"rotation":0}},"texCoord":0},"metallicFactor":0,"roughnessFactor":1},"name":"Goodbye Mist","emissiveTexture":{"index":1,"extensions":{"KHR_texture_transform":{"offset":[0,0],"scale":[1,1],"rotation":0}},"texCoord":0},"emissiveFactor":[0,0,0],"extensions":{},"alphaMode":"BLEND","doubleSided":false},{"pbrMetallicRoughness":{"baseColorFactor":[1,1,1,1],"baseColorTexture":{"index":2,"extensions":{"KHR_texture_transform":{"offset":[0,0],"scale":[1,1],"rotation":0}},"texCoord":0},"metallicFactor":0,"roughnessFactor":1},"name":"Bazaar","emissiveTexture":{"index":3,"extensions":{"KHR_texture_transform":{"offset":[0,0],"scale":[1,1],"rotation":0}},"texCoord":0},"emissiveFactor":[0.51,0.51,0.51],"extensions":{},"alphaMode":"BLEND","doubleSided":false},{"pbrMetallicRoughness":{"baseColorFactor":[1,1,1,1],"baseColorTexture":{"index":4,"extensions":{"KHR_texture_transform":{"offset":[0,0],"scale":[1,1],"rotation":0}},"texCoord":0},"metallicFactor":0,"roughnessFactor":1},"name":"Marion","emissiveTexture":{"index":5,"extensions":{"KHR_texture_transform":{"offset":[0,0],"scale":[1,1],"rotation":0}},"texCoord":0},"emissiveFactor":[0,0,0],"extensions":{},"alphaMode":"BLEND","doubleSided":false},{"pbrMetallicRoughness":{"baseColorFactor":[1,1,1,1],"baseColorTexture":{"index":6,"extensions":{"KHR_texture_transform":{"offset":[0,0],"scale":[1,1],"rotation":0}},"texCoord":0},"metallicFactor":0,"roughnessFactor":1},"name":"Disco LIghts","emissiveTexture":{"index":7,"extensions":{"KHR_texture_transform":{"offset":[0,0],"scale":[1,1],"rotation":0}},"texCoord":0},"emissiveFactor":[0,0,0],"extensions":{},"alphaMode":"BLEND","doubleSided":false},{"pbrMetallicRoughness":{"baseColorFactor":[1,1,1,0.5],"metallicFactor":0,"roughnessFactor":1},"name":"Serenade","emissiveFactor":[1,1,1],"extensions":{},"alphaMode":"BLEND","doubleSided":false},{"pbrMetallicRoughness":{"baseColorFactor":[1,1,1,1],"baseColorTexture":{"index":8,"extensions":{"KHR_texture_transform":{"offset":[0,0],"scale":[1,1],"rotation":0}},"texCoord":0},"metallicFactor":0,"roughnessFactor":1},"name":"Serena","emissiveTexture":{"index":9,"extensions":{"KHR_texture_transform":{"offset":[0,0],"scale":[1,1],"rotation":0}},"texCoord":0},"emissiveFactor":[0.55,0.55,0.55],"extensions":{},"alphaMode":"BLEND","doubleSided":false},{"pbrMetallicRoughness":{"baseColorFactor":[1,1,1,1],"baseColorTexture":{"index":10,"extensions":{"KHR_texture_transform":{"offset":[0,0],"scale":[1,1],"rotation":0}},"texCoord":0},"metallicFactor":0,"roughnessFactor":1},"name":"Mars","emissiveTexture":{"index":11,"extensions":{"KHR_texture_transform":{"offset":[0,0],"scale":[1,1],"rotation":0}},"texCoord":0},"emissiveFactor":[0,0,0],"extensions":{},"alphaMode":"BLEND","doubleSided":false},{"pbrMetallicRoughness":{"baseColorFactor":[1,1,1,1],"baseColorTexture":{"index":12,"extensions":{"KHR_texture_transform":{"offset":[0,0],"scale":[1,1],"rotation":0}},"texCoord":0},"metallicFactor":0,"roughnessFactor":1},"name":"Nemo","emissiveTexture":{"index":13,"extensions":{"KHR_texture_transform":{"offset":[0,0],"scale":[1,1],"rotation":0}},"texCoord":0},"emissiveFactor":[0,0,0],"extensions":{},"alphaMode":"BLEND","doubleSided":false},{"pbrMetallicRoughness":{"baseColorFactor":[1,1,1,1],"baseColorTexture":{"index":14,"extensions":{"KHR_texture_transform":{"offset":[0,0],"scale":[1,1],"rotation":0}},"texCoord":0},"metallicFactor":0,"roughnessFactor":1},"name":"Cosmos","emissiveTexture":{"index":15,"extensions":{"KHR_texture_transform":{"offset":[0,0],"scale":[1,1],"rotation":0}},"texCoord":0},"emissiveFactor":[0,0,0],"extensions":{},"alphaMode":"BLEND","doubleSided":false},{"pbrMetallicRoughness":{"baseColorFactor":[1,1,1,1],"baseColorTexture":{"index":16,"extensions":{"KHR_texture_transform":{"offset":[0,0],"scale":[1,1],"rotation":0}},"texCoord":0},"metallicFactor":0,"roughnessFactor":1},"name":"Nirvana","emissiveTexture":{"index":17,"extensions":{"KHR_texture_transform":{"offset":[0,0],"scale":[1,1],"rotation":0}},"texCoord":0},"emissiveFactor":[0,0,0],"extensions":{},"alphaMode":"BLEND","doubleSided":false},{"pbrMetallicRoughness":{"baseColorFactor":[1,1,1,1],"baseColorTexture":{"index":18,"extensions":{"KHR_texture_transform":{"offset":[0,0],"scale":[1,1],"rotation":0}},"texCoord":0},"metallicFactor":0,"roughnessFactor":1},"name":"Falling Star","emissiveTexture":{"index":19,"extensions":{"KHR_texture_transform":{"offset":[0,0],"scale":[1,1],"rotation":0}},"texCoord":0},"emissiveFactor":[0,0,0],"extensions":{},"alphaMode":"OPAQUE","doubleSided":false},{"pbrMetallicRoughness":{"baseColorFactor":[1,1,1,1],"baseColorTexture":{"index":20,"extensions":{"KHR_texture_transform":{"offset":[0,0],"scale":[1,1],"rotation":0}},"texCoord":0},"metallicFactor":0,"roughnessFactor":1},"name":"Ocean Tropic","emissiveTexture":{"index":21,"extensions":{"KHR_texture_transform":{"offset":[0,0],"scale":[1,1],"rotation":0}},"texCoord":0},"emissiveFactor":[0,0,0],"extensions":{},"alphaMode":"BLEND","doubleSided":false},{"pbrMetallicRoughness":{"baseColorFactor":[1,1,1,1],"baseColorTexture":{"index":22,"extensions":{"KHR_texture_transform":{"offset":[0,0],"scale":[1,1],"rotation":0}},"texCoord":0},"metallicFactor":0,"roughnessFactor":1},"name":"Artemis","emissiveTexture":{"index":23,"extensions":{"KHR_texture_transform":{"offset":[0,0],"scale":[1,1],"rotation":0}},"texCoord":0},"emissiveFactor":[0,0,0],"extensions":{},"alphaMode":"BLEND","doubleSided":false}],"textures":[{"sampler":0,"source":0},{"sampler":0,"source":1},{"sampler":0,"source":2},{"sampler":0,"source":3},{"sampler":0,"source":4},{"sampler":0,"source":5},{"sampler":0,"source":6},{"sampler":0,"source":7},{"sampler":0,"source":8},{"sampler":0,"source":9},{"sampler":0,"source":10},{"sampler":0,"source":11},{"sampler":0,"source":12},{"sampler":0,"source":13},{"sampler":0,"source":14},{"sampler":0,"source":15},{"sampler":0,"source":16},{"sampler":0,"source":17},{"sampler":0,"source":18},{"sampler":0,"source":19},{"sampler":0,"source":20},{"sampler":0,"source":21},{"sampler":0,"source":22},{"sampler":0,"source":23}],"images":[{"uri":"sasIconsasIcon&sasIconsasIcon.png","mimeType":"image/png"},{"uri":"sasIconsasIcon.jpg","mimeType":"image/jpeg"},{"uri":"threeJsIconthreeJsIcon&threeJsIconthreeJsIcon.png","mimeType":"image/png"},{"uri":"threeJsIconthreeJsIcon.jpg","mimeType":"image/jpeg"},{"uri":"bootstrapIconbootstrapIcon&bootstrapIconbootstrapIcon.png","mimeType":"image/png"},{"uri":"bootstrapIconbootstrapIcon.jpg","mimeType":"image/jpeg"},{"uri":"cssIconcssIcon&cssIconcssIcon.png","mimeType":"image/png"},{"uri":"cssIconcssIcon.jpg","mimeType":"image/jpeg"},{"uri":"gitHubIcon&gitHubIcon.png","mimeType":"image/png"},{"uri":"gitHubIcon.jpg","mimeType":"image/jpeg"},{"uri":"htmlIconhtmlIcon&htmlIconhtmlIcon.png","mimeType":"image/png"},{"uri":"htmlIconhtmlIcon.jpg","mimeType":"image/jpeg"},{"uri":"mongoDBIconmongoDBIcon&mongoDBIconmongoDBIcon.png","mimeType":"image/png"},{"uri":"mongoDBIconmongoDBIcon.jpg","mimeType":"image/jpeg"},{"uri":"mySQLIcon&mySQLIcon.png","mimeType":"image/png"},{"uri":"mySQLIcon.jpg","mimeType":"image/jpeg"},{"uri":"nodeJsIconnodeJsIcon&nodeJsIconnodeJsIcon.png","mimeType":"image/png"},{"uri":"nodeJsIconnodeJsIcon.jpg","mimeType":"image/jpeg"},{"uri":"pNetIcon_2.jpg","mimeType":"image/jpeg"},{"uri":"pNetIcon_1.jpg","mimeType":"image/jpeg"},{"uri":"pythonIconpythonIcon&pythonIconpythonIcon.png","mimeType":"image/png"},{"uri":"pythonIconpythonIcon.jpg","mimeType":"image/jpeg"},{"uri":"reactIconreactIcon&reactIconreactIcon.png","mimeType":"image/png"},{"uri":"reactIconreactIcon.jpg","mimeType":"image/jpeg"}],"samplers":[{"wrapS":10497,"wrapT":10497}],"meshes":[{"primitives":[{"mode":4,"attributes":{"POSITION":1,"NORMAL":2,"TEXCOORD_0":3},"material":0,"indices":0}]},{"primitives":[{"mode":4,"attributes":{"POSITION":5,"NORMAL":6,"TEXCOORD_0":7},"material":1,"indices":4}]},{"primitives":[{"mode":4,"attributes":{"POSITION":9,"NORMAL":10,"TEXCOORD_0":11},"material":2,"indices":8}]},{"primitives":[{"mode":4,"attributes":{"POSITION":13,"NORMAL":14,"TEXCOORD_0":15},"material":3,"indices":12}]},{"primitives":[{"mode":4,"attributes":{"POSITION":17,"NORMAL":18,"TEXCOORD_0":19},"material":4,"indices":16}]},{"primitives":[{"mode":4,"attributes":{"POSITION":21,"NORMAL":22,"TEXCOORD_0":23},"material":5,"indices":20}]},{"primitives":[{"mode":4,"attributes":{"POSITION":25,"NORMAL":26,"TEXCOORD_0":27},"material":6,"indices":24}]},{"primitives":[{"mode":4,"attributes":{"POSITION":29,"NORMAL":30,"TEXCOORD_0":31},"material":7,"indices":28}]},{"primitives":[{"mode":4,"attributes":{"POSITION":33,"NORMAL":34,"TEXCOORD_0":35},"material":8,"indices":32}]},{"primitives":[{"mode":4,"attributes":{"POSITION":37,"NORMAL":38,"TEXCOORD_0":39},"material":9,"indices":36}]},{"primitives":[{"mode":4,"attributes":{"POSITION":41,"NORMAL":42,"TEXCOORD_0":43},"material":10,"indices":40}]},{"primitives":[{"mode":4,"attributes":{"POSITION":45,"NORMAL":46,"TEXCOORD_0":47},"material":11,"indices":44}]},{"primitives":[{"mode":4,"attributes":{"POSITION":49,"NORMAL":50,"TEXCOORD_0":51},"material":12,"indices":48}]}],"accessors":[{"bufferView":0,"byteOffset":0,"componentType":5125,"count":246,"type":"SCALAR"},{"bufferView":1,"byteOffset":0,"componentType":5126,"count":84,"max":[126.08345031738281,127.99994659423828,0.10000170022249222],"min":[-127.26974487304688,-128,-2.035362482070923],"type":"VEC3"},{"bufferView":2,"byteOffset":0,"componentType":5126,"count":84,"type":"VEC3"},{"bufferView":3,"byteOffset":0,"componentType":5126,"count":84,"type":"VEC2"},{"bufferView":4,"byteOffset":0,"componentType":5125,"count":72,"type":"SCALAR"},{"bufferView":5,"byteOffset":0,"componentType":5126,"count":26,"max":[126.34825897216797,128.00001525878906,0.20000050961971283],"min":[-124.9505615234375,-128.00013732910156,-2.02002215385437],"type":"VEC3"},{"bufferView":6,"byteOffset":0,"componentType":5126,"count":26,"type":"VEC3"},{"bufferView":7,"byteOffset":0,"componentType":5126,"count":26,"type":"VEC2"},{"bufferView":8,"byteOffset":0,"componentType":5125,"count":72,"type":"SCALAR"},{"bufferView":9,"byteOffset":0,"componentType":5126,"count":26,"max":[126.93001556396484,102.0000991821289,0.29999738931655884],"min":[-127.6368408203125,-102.00000762939453,-1.6477556228637695],"type":"VEC3"},{"bufferView":10,"byteOffset":0,"componentType":5126,"count":26,"type":"VEC3"},{"bufferView":11,"byteOffset":0,"componentType":5126,"count":26,"type":"VEC2"},{"bufferView":12,"byteOffset":0,"componentType":5125,"count":72,"type":"SCALAR"},{"bufferView":13,"byteOffset":0,"componentType":5126,"count":26,"max":[127.6693344116211,128.0000457763672,0.3999996781349182],"min":[-126.86984252929688,-128.00009155273438,-1.846871256828308],"type":"VEC3"},{"bufferView":14,"byteOffset":0,"componentType":5126,"count":26,"type":"VEC3"},{"bufferView":15,"byteOffset":0,"componentType":5126,"count":26,"type":"VEC2"},{"bufferView":16,"byteOffset":0,"componentType":5125,"count":4800,"type":"SCALAR"},{"bufferView":17,"byteOffset":0,"componentType":5126,"count":834,"max":[34.900001525878906,35.349998474121094,0],"min":[-34.900001525878906,-35.349998474121094,0],"type":"VEC3"},{"bufferView":18,"byteOffset":0,"componentType":5126,"count":834,"type":"VEC3"},{"bufferView":19,"byteOffset":0,"componentType":5126,"count":834,"type":"VEC2"},{"bufferView":20,"byteOffset":0,"componentType":5125,"count":72,"type":"SCALAR"},{"bufferView":21,"byteOffset":0,"componentType":5126,"count":26,"max":[128.09738159179688,128.0000457763672,0.5000002384185791],"min":[-127.38782501220703,-128.00015258789062,-1.5463663339614868],"type":"VEC3"},{"bufferView":22,"byteOffset":0,"componentType":5126,"count":26,"type":"VEC3"},{"bufferView":23,"byteOffset":0,"componentType":5126,"count":26,"type":"VEC2"},{"bufferView":24,"byteOffset":0,"componentType":5125,"count":72,"type":"SCALAR"},{"bufferView":25,"byteOffset":0,"componentType":5126,"count":26,"max":[128.3142852783203,128.02215576171875,0.5999997854232788],"min":[-126.9726791381836,-128.00006103515625,-2.099045753479004],"type":"VEC3"},{"bufferView":26,"byteOffset":0,"componentType":5126,"count":26,"type":"VEC3"},{"bufferView":27,"byteOffset":0,"componentType":5126,"count":26,"type":"VEC2"},{"bufferView":28,"byteOffset":0,"componentType":5125,"count":72,"type":"SCALAR"},{"bufferView":29,"byteOffset":0,"componentType":5126,"count":26,"max":[128.42007446289062,128.00009155273438,0.700002133846283],"min":[-128.15452575683594,-128.00006103515625,-1.2415891885757446],"type":"VEC3"},{"bufferView":30,"byteOffset":0,"componentType":5126,"count":26,"type":"VEC3"},{"bufferView":31,"byteOffset":0,"componentType":5126,"count":26,"type":"VEC2"},{"bufferView":32,"byteOffset":0,"componentType":5125,"count":66,"type":"SCALAR"},{"bufferView":33,"byteOffset":0,"componentType":5126,"count":24,"max":[128.82998657226562,66.46279907226562,0.7999990582466125],"min":[-128.1495819091797,-66.44318389892578,-1.4609572887420654],"type":"VEC3"},{"bufferView":34,"byteOffset":0,"componentType":5126,"count":24,"type":"VEC3"},{"bufferView":35,"byteOffset":0,"componentType":5126,"count":24,"type":"VEC2"},{"bufferView":36,"byteOffset":0,"componentType":5125,"count":66,"type":"SCALAR"},{"bufferView":37,"byteOffset":0,"componentType":5126,"count":24,"max":[128.6602020263672,78.300048828125,0.9000008702278137],"min":[-129.1063232421875,-78.30008697509766,-0.8149927258491516],"type":"VEC3"},{"bufferView":38,"byteOffset":0,"componentType":5126,"count":24,"type":"VEC3"},{"bufferView":39,"byteOffset":0,"componentType":5126,"count":24,"type":"VEC2"},{"bufferView":40,"byteOffset":0,"componentType":5125,"count":72,"type":"SCALAR"},{"bufferView":41,"byteOffset":0,"componentType":5126,"count":26,"max":[129.5775146484375,128.00003051757812,1.0000003576278687],"min":[-129.7472381591797,-128.0000457763672,-0.6048098206520081],"type":"VEC3"},{"bufferView":42,"byteOffset":0,"componentType":5126,"count":26,"type":"VEC3"},{"bufferView":43,"byteOffset":0,"componentType":5126,"count":26,"type":"VEC2"},{"bufferView":44,"byteOffset":0,"componentType":5125,"count":108,"type":"SCALAR"},{"bufferView":45,"byteOffset":0,"componentType":5126,"count":38,"max":[127.38920593261719,72.00003814697266,1.0999997854232788],"min":[-127.031494140625,-72.0000228881836,-3.06837797164917],"type":"VEC3"},{"bufferView":46,"byteOffset":0,"componentType":5126,"count":38,"type":"VEC3"},{"bufferView":47,"byteOffset":0,"componentType":5126,"count":38,"type":"VEC2"},{"bufferView":48,"byteOffset":0,"componentType":5125,"count":66,"type":"SCALAR"},{"bufferView":49,"byteOffset":0,"componentType":5126,"count":24,"max":[129.55870056152344,111.3044662475586,1.199998140335083],"min":[-129.32757568359375,-111.3044204711914,-0.9693306088447571],"type":"VEC3"},{"bufferView":50,"byteOffset":0,"componentType":5126,"count":24,"type":"VEC3"},{"bufferView":51,"byteOffset":0,"componentType":5126,"count":24,"type":"VEC2"}],"bufferViews":[{"buffer":0,"byteOffset":0,"byteLength":984,"target":34963},{"buffer":0,"byteOffset":984,"byteLength":1008,"target":34962},{"buffer":0,"byteOffset":1992,"byteLength":1008,"target":34962},{"buffer":0,"byteOffset":3000,"byteLength":672,"target":34962},{"buffer":0,"byteOffset":3672,"byteLength":288,"target":34963},{"buffer":0,"byteOffset":3960,"byteLength":312,"target":34962},{"buffer":0,"byteOffset":4272,"byteLength":312,"target":34962},{"buffer":0,"byteOffset":4584,"byteLength":208,"target":34962},{"buffer":0,"byteOffset":4792,"byteLength":288,"target":34963},{"buffer":0,"byteOffset":5080,"byteLength":312,"target":34962},{"buffer":0,"byteOffset":5392,"byteLength":312,"target":34962},{"buffer":0,"byteOffset":5704,"byteLength":208,"target":34962},{"buffer":0,"byteOffset":5912,"byteLength":288,"target":34963},{"buffer":0,"byteOffset":6200,"byteLength":312,"target":34962},{"buffer":0,"byteOffset":6512,"byteLength":312,"target":34962},{"buffer":0,"byteOffset":6824,"byteLength":208,"target":34962},{"buffer":0,"byteOffset":7032,"byteLength":19200,"target":34963},{"buffer":0,"byteOffset":26232,"byteLength":10008,"target":34962},{"buffer":0,"byteOffset":36240,"byteLength":10008,"target":34962},{"buffer":0,"byteOffset":46248,"byteLength":6672,"target":34962},{"buffer":0,"byteOffset":52920,"byteLength":288,"target":34963},{"buffer":0,"byteOffset":53208,"byteLength":312,"target":34962},{"buffer":0,"byteOffset":53520,"byteLength":312,"target":34962},{"buffer":0,"byteOffset":53832,"byteLength":208,"target":34962},{"buffer":0,"byteOffset":54040,"byteLength":288,"target":34963},{"buffer":0,"byteOffset":54328,"byteLength":312,"target":34962},{"buffer":0,"byteOffset":54640,"byteLength":312,"target":34962},{"buffer":0,"byteOffset":54952,"byteLength":208,"target":34962},{"buffer":0,"byteOffset":55160,"byteLength":288,"target":34963},{"buffer":0,"byteOffset":55448,"byteLength":312,"target":34962},{"buffer":0,"byteOffset":55760,"byteLength":312,"target":34962},{"buffer":0,"byteOffset":56072,"byteLength":208,"target":34962},{"buffer":0,"byteOffset":56280,"byteLength":264,"target":34963},{"buffer":0,"byteOffset":56544,"byteLength":288,"target":34962},{"buffer":0,"byteOffset":56832,"byteLength":288,"target":34962},{"buffer":0,"byteOffset":57120,"byteLength":192,"target":34962},{"buffer":0,"byteOffset":57312,"byteLength":264,"target":34963},{"buffer":0,"byteOffset":57576,"byteLength":288,"target":34962},{"buffer":0,"byteOffset":57864,"byteLength":288,"target":34962},{"buffer":0,"byteOffset":58152,"byteLength":192,"target":34962},{"buffer":0,"byteOffset":58344,"byteLength":288,"target":34963},{"buffer":0,"byteOffset":58632,"byteLength":312,"target":34962},{"buffer":0,"byteOffset":58944,"byteLength":312,"target":34962},{"buffer":0,"byteOffset":59256,"byteLength":208,"target":34962},{"buffer":0,"byteOffset":59464,"byteLength":432,"target":34963},{"buffer":0,"byteOffset":59896,"byteLength":456,"target":34962},{"buffer":0,"byteOffset":60352,"byteLength":456,"target":34962},{"buffer":0,"byteOffset":60808,"byteLength":304,"target":34962},{"buffer":0,"byteOffset":61112,"byteLength":264,"target":34963},{"buffer":0,"byteOffset":61376,"byteLength":288,"target":34962},{"buffer":0,"byteOffset":61664,"byteLength":288,"target":34962},{"buffer":0,"byteOffset":61952,"byteLength":192,"target":34962}],"scene":0,"scenes":[{"nodes":[0],"name":"TechSphere"}],"extensionsUsed":["KHR_texture_transform"],"buffers":[{"byteLength":62144,"uri":"TechSphere.bin"}]}