{"asset":{"version":"2.0","generator":"VECTARY"},"nodes":[{"translation":[0,-0.1,-2.1316282072803006e-17],"scale":[0.0009718220205151629,0.0010104327178114027,0.0011153369990742703],"rotation":[-0.7071067811865475,0,0,0.7071067811865476],"name":"Group","children":[1,2,3,4,5,6,7,8,9,10,11]},{"translation":[-3.012845234116341,0.8917106388630387,2.1583744708036505],"scale":[1,1,1],"rotation":[0,0,0.5557555261893575,0.8313457734961972],"name":"Sphere","mesh":0},{"translation":[-33.32001504218628,-75.76278527358934,119.34240131831423],"scale":[0.27724635020665594,0.27724635020665594,0.27724635020665594],"rotation":[0.564650458988052,-0.11359807723911752,-0.11818335292553962,0.8088869087229901],"name":"mongoDBIcon","mesh":1},{"translation":[-78.81347624581568,-31.94886491987915,60.87899793987639],"scale":[0.24102333747345128,0.24102333747345125,0.24102333747345125],"rotation":[0.6874041354879116,-0.4424260251298129,-0.3045440139397104,0.4888636930427954],"name":"nodeJsIcon","mesh":2},{"translation":[-3.3272539126602947,1.4321939907694201,2.1557640163257332],"scale":[0.2638244681196462,0.26382446811964616,0.26382446811964616],"rotation":[0.9992176673053987,0.03098942418289472,0.022526434365426274,-0.009811660835461236],"name":"pNetIcon","mesh":3},{"translation":[72.96764874072355,29.497819927872236,56.99505476779688],"scale":[0.5046209522522607,0.5046209522522607,0.6307761903153258],"rotation":[0.47768754201507296,0.6633852185689362,0.4743496524925055,0.32669109441195654],"name":"pythonIcon","mesh":4},{"translation":[-6.530486177802455,0.90421058378905,177.3855930343825],"scale":[0.29171852314738217,0.29171852314738217,0.29171852314738217],"rotation":[0.0013857010964742204,-0.024530939763785127,-0.007337438831567947,0.99967118334889],"name":"reactIcon","mesh":5},{"translation":[-79.36379624956172,20.021223939856533,128.1101393911277],"scale":[0.27679576583178567,0.2767957658317856,0.27679576583178567],"rotation":[0.338583138299998,-0.4144811153772572,-0.6773478360510161,0.5047442644067935],"name":"htmlIcon","mesh":6},{"translation":[69.16676256038875,-41.99977956913968,114.9285977924415],"scale":[0.26721692602825986,0.2672169260282598,0.2672169260282598],"rotation":[0.49686704751489125,0.29130383186765973,0.3923224840783688,0.7171807883090783],"name":"bootstrapIcon","mesh":7},{"translation":[-47.93586588679585,74.75934007891397,76.40833946227374],"scale":[0.29247446925517073,0.29247446925517057,0.2924744692551706],"rotation":[-0.19541746060102705,0.7314988811443389,0.6279952809182244,-0.17984251477686453],"name":"cssIcon","mesh":8},{"translation":[31.69477322633186,75.7004391244461,119.11311453045367],"scale":[0.23706476755667663,0.23706476755667666,0.23706476755667666],"rotation":[-0.5576945900995272,0.143916980795235,-0.1537759867747606,0.8028808085288581],"name":"sasIcon","mesh":9},{"translation":[18.748953591735017,-82.50256740481953,74.58135810669759],"scale":[0.1973385453536229,0.1973385453536229,0.1973385453536229],"rotation":[-0.44049376003096236,0.6158276898164259,-0.6077301886602225,-0.23955275331366827],"name":"threeJsIcon","mesh":10}],"materials":[{"pbrMetallicRoughness":{"baseColorFactor":[0.7226724536002546,0.7226724536002546,0.7518950805830509,1],"metallicFactor":0,"roughnessFactor":1},"name":"Milky 1.5","normalTexture":{"index":0,"scale":0.1,"extensions":{"KHR_texture_transform":{"offset":[0,0],"scale":[5,5],"rotation":0}},"texCoord":0},"emissiveFactor":[0.2,0.2,0.2],"extensions":{"KHR_materials_transmission":{"transmissionFactor":1},"KHR_materials_ior":{"ior":1.5},"KHR_materials_volume":{"thicknessFactor":0.01}},"alphaMode":"OPAQUE","doubleSided":false},{"pbrMetallicRoughness":{"baseColorFactor":[1,1,1,1],"baseColorTexture":{"index":1,"extensions":{"KHR_texture_transform":{"offset":[0,0],"scale":[1,1],"rotation":0}},"texCoord":0},"metallicFactor":0,"roughnessFactor":1},"name":"Golem","emissiveTexture":{"index":2,"extensions":{"KHR_texture_transform":{"offset":[0,0],"scale":[1,1],"rotation":0}},"texCoord":0},"emissiveFactor":[0,0,0],"extensions":{},"alphaMode":"BLEND","doubleSided":false},{"pbrMetallicRoughness":{"baseColorFactor":[1,1,1,1],"baseColorTexture":{"index":3,"extensions":{"KHR_texture_transform":{"offset":[0,0],"scale":[1,1],"rotation":0}},"texCoord":0},"metallicFactor":0,"roughnessFactor":1},"name":"Columbia","emissiveTexture":{"index":4,"extensions":{"KHR_texture_transform":{"offset":[0,0],"scale":[1,1],"rotation":0}},"texCoord":0},"emissiveFactor":[0,0,0],"extensions":{},"alphaMode":"BLEND","doubleSided":false},{"pbrMetallicRoughness":{"baseColorFactor":[1,1,1,1],"baseColorTexture":{"index":5,"extensions":{"KHR_texture_transform":{"offset":[0,0],"scale":[1,1],"rotation":0}},"texCoord":0},"metallicFactor":0,"roughnessFactor":1},"name":"Day Dream","emissiveTexture":{"index":6,"extensions":{"KHR_texture_transform":{"offset":[0,0],"scale":[1,1],"rotation":0}},"texCoord":0},"emissiveFactor":[0,0,0],"extensions":{},"alphaMode":"OPAQUE","doubleSided":false},{"pbrMetallicRoughness":{"baseColorFactor":[1,1,1,1],"baseColorTexture":{"index":7,"extensions":{"KHR_texture_transform":{"offset":[0,0],"scale":[1,1],"rotation":0}},"texCoord":0},"metallicFactor":0,"roughnessFactor":1},"name":"Nepal","emissiveTexture":{"index":8,"extensions":{"KHR_texture_transform":{"offset":[0,0],"scale":[1,1],"rotation":0}},"texCoord":0},"emissiveFactor":[0,0,0],"extensions":{},"alphaMode":"BLEND","doubleSided":false},{"pbrMetallicRoughness":{"baseColorFactor":[1,1,1,1],"baseColorTexture":{"index":9,"extensions":{"KHR_texture_transform":{"offset":[0,0],"scale":[1,1],"rotation":0}},"texCoord":0},"metallicFactor":0,"roughnessFactor":1},"name":"Ducati","emissiveTexture":{"index":10,"extensions":{"KHR_texture_transform":{"offset":[0,0],"scale":[1,1],"rotation":0}},"texCoord":0},"emissiveFactor":[0.08,0.08,0.08],"extensions":{},"alphaMode":"BLEND","doubleSided":false},{"pbrMetallicRoughness":{"baseColorFactor":[1,1,1,1],"baseColorTexture":{"index":11,"extensions":{"KHR_texture_transform":{"offset":[0,0],"scale":[1,1],"rotation":0}},"texCoord":0},"metallicFactor":0,"roughnessFactor":1},"name":"Dust Storm","emissiveTexture":{"index":12,"extensions":{"KHR_texture_transform":{"offset":[0,0],"scale":[1,1],"rotation":0}},"texCoord":0},"emissiveFactor":[0,0,0],"extensions":{},"alphaMode":"BLEND","doubleSided":false},{"pbrMetallicRoughness":{"baseColorFactor":[1,1,1,1],"baseColorTexture":{"index":13,"extensions":{"KHR_texture_transform":{"offset":[0,0],"scale":[1,1],"rotation":0}},"texCoord":0},"metallicFactor":0,"roughnessFactor":1},"name":"First Impression","emissiveTexture":{"index":14,"extensions":{"KHR_texture_transform":{"offset":[0,0],"scale":[1,1],"rotation":0}},"texCoord":0},"emissiveFactor":[0,0,0],"extensions":{},"alphaMode":"BLEND","doubleSided":false},{"pbrMetallicRoughness":{"baseColorFactor":[1,1,1,1],"baseColorTexture":{"index":15,"extensions":{"KHR_texture_transform":{"offset":[0,0],"scale":[1,1],"rotation":0}},"texCoord":0},"metallicFactor":0,"roughnessFactor":1},"name":"Fiji","emissiveTexture":{"index":16,"extensions":{"KHR_texture_transform":{"offset":[0,0],"scale":[1,1],"rotation":0}},"texCoord":0},"emissiveFactor":[0,0,0],"extensions":{},"alphaMode":"BLEND","doubleSided":false},{"pbrMetallicRoughness":{"baseColorFactor":[1,1,1,1],"baseColorTexture":{"index":17,"extensions":{"KHR_texture_transform":{"offset":[0,0],"scale":[1,1],"rotation":0}},"texCoord":0},"metallicFactor":0,"roughnessFactor":1},"name":"Abstract","emissiveTexture":{"index":18,"extensions":{"KHR_texture_transform":{"offset":[0,0],"scale":[1,1],"rotation":0}},"texCoord":0},"emissiveFactor":[0,0,0],"extensions":{},"alphaMode":"BLEND","doubleSided":false},{"pbrMetallicRoughness":{"baseColorFactor":[1,1,1,1],"baseColorTexture":{"index":19,"extensions":{"KHR_texture_transform":{"offset":[0,0],"scale":[1,1],"rotation":0}},"texCoord":0},"metallicFactor":0,"roughnessFactor":1},"name":"Goodbye Mist","emissiveTexture":{"index":20,"extensions":{"KHR_texture_transform":{"offset":[0,0],"scale":[1,1],"rotation":0}},"texCoord":0},"emissiveFactor":[0,0,0],"extensions":{},"alphaMode":"BLEND","doubleSided":false}],"textures":[{"sampler":0,"source":0},{"sampler":0,"source":1},{"sampler":0,"source":2},{"sampler":0,"source":3},{"sampler":0,"source":4},{"sampler":0,"source":5},{"sampler":0,"source":6},{"sampler":0,"source":7},{"sampler":0,"source":8},{"sampler":0,"source":9},{"sampler":0,"source":10},{"sampler":0,"source":11},{"sampler":0,"source":12},{"sampler":0,"source":13},{"sampler":0,"source":14},{"sampler":0,"source":15},{"sampler":0,"source":16},{"sampler":0,"source":17},{"sampler":0,"source":18},{"sampler":0,"source":19},{"sampler":0,"source":20}],"images":[{"uri":"2k-carpaint-normal.jpg","mimeType":"image/jpeg"},{"uri":"mongoDBIcon&mongoDBIcon.png","mimeType":"image/png"},{"uri":"mongoDBIcon.jpg","mimeType":"image/jpeg"},{"uri":"nodeJsIcon&nodeJsIcon.png","mimeType":"image/png"},{"uri":"nodeJsIcon.jpg","mimeType":"image/jpeg"},{"uri":"pNetIcon_1.jpg","mimeType":"image/jpeg"},{"uri":"pNetIcon.jpg","mimeType":"image/jpeg"},{"uri":"pythonIcon&pythonIcon.png","mimeType":"image/png"},{"uri":"pythonIcon.jpg","mimeType":"image/jpeg"},{"uri":"reactIcon&reactIcon.png","mimeType":"image/png"},{"uri":"reactIcon.jpg","mimeType":"image/jpeg"},{"uri":"htmlIcon&htmlIcon.png","mimeType":"image/png"},{"uri":"htmlIcon.jpg","mimeType":"image/jpeg"},{"uri":"bootstrapIcon&bootstrapIcon.png","mimeType":"image/png"},{"uri":"bootstrapIcon.jpg","mimeType":"image/jpeg"},{"uri":"cssIcon&cssIcon.png","mimeType":"image/png"},{"uri":"cssIcon.jpg","mimeType":"image/jpeg"},{"uri":"sasIcon&sasIcon.png","mimeType":"image/png"},{"uri":"sasIcon.jpg","mimeType":"image/jpeg"},{"uri":"threeJsIcon&threeJsIcon.png","mimeType":"image/png"},{"uri":"threeJsIcon.jpg","mimeType":"image/jpeg"}],"samplers":[{"wrapS":10497,"wrapT":10497}],"meshes":[{"primitives":[{"mode":4,"attributes":{"POSITION":1,"NORMAL":2,"TEXCOORD_0":3},"material":0,"indices":0}]},{"primitives":[{"mode":4,"attributes":{"POSITION":5,"NORMAL":6,"TEXCOORD_0":7},"material":1,"indices":4}]},{"primitives":[{"mode":4,"attributes":{"POSITION":9,"NORMAL":10,"TEXCOORD_0":11},"material":2,"indices":8}]},{"primitives":[{"mode":4,"attributes":{"POSITION":13,"NORMAL":14,"TEXCOORD_0":15},"material":3,"indices":12}]},{"primitives":[{"mode":4,"attributes":{"POSITION":17,"NORMAL":18,"TEXCOORD_0":19},"material":4,"indices":16}]},{"primitives":[{"mode":4,"attributes":{"POSITION":21,"NORMAL":22,"TEXCOORD_0":23},"material":5,"indices":20}]},{"primitives":[{"mode":4,"attributes":{"POSITION":25,"NORMAL":26,"TEXCOORD_0":27},"material":6,"indices":24}]},{"primitives":[{"mode":4,"attributes":{"POSITION":29,"NORMAL":30,"TEXCOORD_0":31},"material":7,"indices":28}]},{"primitives":[{"mode":4,"attributes":{"POSITION":33,"NORMAL":34,"TEXCOORD_0":35},"material":8,"indices":32}]},{"primitives":[{"mode":4,"attributes":{"POSITION":37,"NORMAL":38,"TEXCOORD_0":39},"material":9,"indices":36}]},{"primitives":[{"mode":4,"attributes":{"POSITION":41,"NORMAL":42,"TEXCOORD_0":43},"material":10,"indices":40}]}],"accessors":[{"bufferView":0,"byteOffset":0,"componentType":5125,"count":11904,"type":"SCALAR"},{"bufferView":1,"byteOffset":0,"componentType":5126,"count":2143,"max":[87.69999694824219,87.69999694824219,175.39999389648438],"min":[-87.69999694824219,-87.69999694824219,0.000003051757857974735],"type":"VEC3"},{"bufferView":2,"byteOffset":0,"componentType":5126,"count":2143,"type":"VEC3"},{"bufferView":3,"byteOffset":0,"componentType":5126,"count":2143,"type":"VEC2"},{"bufferView":4,"byteOffset":0,"componentType":5125,"count":648,"type":"SCALAR"},{"bufferView":5,"byteOffset":0,"componentType":5126,"count":148,"max":[125.04193878173828,124.52436828613281,0.3590918779373169],"min":[-123.65238189697266,-124.64512634277344,-53.42582321166992],"type":"VEC3"},{"bufferView":6,"byteOffset":0,"componentType":5126,"count":148,"type":"VEC3"},{"bufferView":7,"byteOffset":0,"componentType":5126,"count":148,"type":"VEC2"},{"bufferView":8,"byteOffset":0,"componentType":5125,"count":330,"type":"SCALAR"},{"bufferView":9,"byteOffset":0,"componentType":5126,"count":82,"max":[126.06599426269531,78.3707275390625,0.8260841965675354],"min":[-124.6971206665039,-77.86022186279297,-33.21522903442383],"type":"VEC3"},{"bufferView":10,"byteOffset":0,"componentType":5126,"count":82,"type":"VEC3"},{"bufferView":11,"byteOffset":0,"componentType":5126,"count":82,"type":"VEC2"},{"bufferView":12,"byteOffset":0,"componentType":5125,"count":1932,"type":"SCALAR"},{"bufferView":13,"byteOffset":0,"componentType":5126,"count":397,"max":[126.61288452148438,125.30268096923828,1.1343744993209839],"min":[-123.76034545898438,-125.68631744384766,-52.871395111083984],"type":"VEC3"},{"bufferView":14,"byteOffset":0,"componentType":5126,"count":397,"type":"VEC3"},{"bufferView":15,"byteOffset":0,"componentType":5126,"count":397,"type":"VEC2"},{"bufferView":16,"byteOffset":0,"componentType":5125,"count":1284,"type":"SCALAR"},{"bufferView":17,"byteOffset":0,"componentType":5126,"count":298,"max":[115.61721801757812,71.39273834228516,0.6312903165817261],"min":[-117.61143493652344,-69.63627624511719,-40.739990234375],"type":"VEC3"},{"bufferView":18,"byteOffset":0,"componentType":5126,"count":298,"type":"VEC3"},{"bufferView":19,"byteOffset":0,"componentType":5126,"count":298,"type":"VEC2"},{"bufferView":20,"byteOffset":0,"componentType":5125,"count":1950,"type":"SCALAR"},{"bufferView":21,"byteOffset":0,"componentType":5126,"count":401,"max":[124.88362884521484,109.01802062988281,1.7098218202590942],"min":[-124.99383544921875,-109.64764404296875,-46.11497116088867],"type":"VEC3"},{"bufferView":22,"byteOffset":0,"componentType":5126,"count":401,"type":"VEC3"},{"bufferView":23,"byteOffset":0,"componentType":5126,"count":401,"type":"VEC2"},{"bufferView":24,"byteOffset":0,"componentType":5125,"count":666,"type":"SCALAR"},{"bufferView":25,"byteOffset":0,"componentType":5126,"count":151,"max":[124.96472930908203,124.98802947998047,1.9406993389129639],"min":[-125.08291625976562,-125.49772644042969,-49.21639633178711],"type":"VEC3"},{"bufferView":26,"byteOffset":0,"componentType":5126,"count":151,"type":"VEC3"},{"bufferView":27,"byteOffset":0,"componentType":5126,"count":151,"type":"VEC2"},{"bufferView":28,"byteOffset":0,"componentType":5125,"count":516,"type":"SCALAR"},{"bufferView":29,"byteOffset":0,"componentType":5126,"count":119,"max":[125.0985107421875,102.68917846679688,2.3444337844848633],"min":[-125.59174346923828,-100.38688659667969,-43.34101104736328],"type":"VEC3"},{"bufferView":30,"byteOffset":0,"componentType":5126,"count":119,"type":"VEC3"},{"bufferView":31,"byteOffset":0,"componentType":5126,"count":119,"type":"VEC2"},{"bufferView":32,"byteOffset":0,"componentType":5125,"count":636,"type":"SCALAR"},{"bufferView":33,"byteOffset":0,"componentType":5126,"count":145,"max":[124.70246887207031,125.23934936523438,2.4472265243530273],"min":[-125.0006332397461,-124.88629150390625,-50.86723709106445],"type":"VEC3"},{"bufferView":34,"byteOffset":0,"componentType":5126,"count":145,"type":"VEC3"},{"bufferView":35,"byteOffset":0,"componentType":5126,"count":145,"type":"VEC2"},{"bufferView":36,"byteOffset":0,"componentType":5125,"count":516,"type":"SCALAR"},{"bufferView":37,"byteOffset":0,"componentType":5126,"count":121,"max":[126.67171478271484,126.74716186523438,3.3955507278442383],"min":[-126.3092041015625,-126.79158020019531,-40.340579986572266],"type":"VEC3"},{"bufferView":38,"byteOffset":0,"componentType":5126,"count":121,"type":"VEC3"},{"bufferView":39,"byteOffset":0,"componentType":5126,"count":121,"type":"VEC2"},{"bufferView":40,"byteOffset":0,"componentType":5125,"count":372,"type":"SCALAR"},{"bufferView":41,"byteOffset":0,"componentType":5126,"count":91,"max":[126.35652923583984,127.39533233642578,4.5314507484436035],"min":[-125.33167266845703,-127.56580352783203,-36.134281158447266],"type":"VEC3"},{"bufferView":42,"byteOffset":0,"componentType":5126,"count":91,"type":"VEC3"},{"bufferView":43,"byteOffset":0,"componentType":5126,"count":91,"type":"VEC2"}],"bufferViews":[{"buffer":0,"byteOffset":0,"byteLength":47616,"target":34963},{"buffer":0,"byteOffset":47616,"byteLength":25716,"target":34962},{"buffer":0,"byteOffset":73332,"byteLength":25716,"target":34962},{"buffer":0,"byteOffset":99048,"byteLength":17144,"target":34962},{"buffer":0,"byteOffset":116192,"byteLength":2592,"target":34963},{"buffer":0,"byteOffset":118784,"byteLength":1776,"target":34962},{"buffer":0,"byteOffset":120560,"byteLength":1776,"target":34962},{"buffer":0,"byteOffset":122336,"byteLength":1184,"target":34962},{"buffer":0,"byteOffset":123520,"byteLength":1320,"target":34963},{"buffer":0,"byteOffset":124840,"byteLength":984,"target":34962},{"buffer":0,"byteOffset":125824,"byteLength":984,"target":34962},{"buffer":0,"byteOffset":126808,"byteLength":656,"target":34962},{"buffer":0,"byteOffset":127464,"byteLength":7728,"target":34963},{"buffer":0,"byteOffset":135192,"byteLength":4764,"target":34962},{"buffer":0,"byteOffset":139956,"byteLength":4764,"target":34962},{"buffer":0,"byteOffset":144720,"byteLength":3176,"target":34962},{"buffer":0,"byteOffset":147896,"byteLength":5136,"target":34963},{"buffer":0,"byteOffset":153032,"byteLength":3576,"target":34962},{"buffer":0,"byteOffset":156608,"byteLength":3576,"target":34962},{"buffer":0,"byteOffset":160184,"byteLength":2384,"target":34962},{"buffer":0,"byteOffset":162568,"byteLength":7800,"target":34963},{"buffer":0,"byteOffset":170368,"byteLength":4812,"target":34962},{"buffer":0,"byteOffset":175180,"byteLength":4812,"target":34962},{"buffer":0,"byteOffset":179992,"byteLength":3208,"target":34962},{"buffer":0,"byteOffset":183200,"byteLength":2664,"target":34963},{"buffer":0,"byteOffset":185864,"byteLength":1812,"target":34962},{"buffer":0,"byteOffset":187676,"byteLength":1812,"target":34962},{"buffer":0,"byteOffset":189488,"byteLength":1208,"target":34962},{"buffer":0,"byteOffset":190696,"byteLength":2064,"target":34963},{"buffer":0,"byteOffset":192760,"byteLength":1428,"target":34962},{"buffer":0,"byteOffset":194188,"byteLength":1428,"target":34962},{"buffer":0,"byteOffset":195616,"byteLength":952,"target":34962},{"buffer":0,"byteOffset":196568,"byteLength":2544,"target":34963},{"buffer":0,"byteOffset":199112,"byteLength":1740,"target":34962},{"buffer":0,"byteOffset":200852,"byteLength":1740,"target":34962},{"buffer":0,"byteOffset":202592,"byteLength":1160,"target":34962},{"buffer":0,"byteOffset":203752,"byteLength":2064,"target":34963},{"buffer":0,"byteOffset":205816,"byteLength":1452,"target":34962},{"buffer":0,"byteOffset":207268,"byteLength":1452,"target":34962},{"buffer":0,"byteOffset":208720,"byteLength":968,"target":34962},{"buffer":0,"byteOffset":209688,"byteLength":1488,"target":34963},{"buffer":0,"byteOffset":211176,"byteLength":1092,"target":34962},{"buffer":0,"byteOffset":212268,"byteLength":1092,"target":34962},{"buffer":0,"byteOffset":213360,"byteLength":728,"target":34962}],"scene":0,"scenes":[{"nodes":[0],"name":"TechSphere"}],"extensionsUsed":["KHR_texture_transform","KHR_materials_ior","KHR_materials_volume","KHR_materials_transmission"],"buffers":[{"byteLength":214088,"uri":"TechSphere.bin"}]}