<?xml version="1.0" standalone="no"?>
<!DOCTYPE svg PUBLIC "-//W3C//DTD SVG 20010904//EN"
 "http://www.w3.org/TR/2001/REC-SVG-20010904/DTD/svg10.dtd">
<svg version="1.0" xmlns="http://www.w3.org/2000/svg"
 width="924.000000pt" height="924.000000pt" viewBox="0 0 924.000000 924.000000"
 preserveAspectRatio="xMidYMid meet">
<metadata>
Created by potrace 1.14, written by Peter Selinger 2001-2017
</metadata>
<g transform="translate(0.000000,924.000000) scale(0.100000,-0.100000)"
fill="#000000" stroke="none">
<path d="M4651 8360 c-4 -3 -36 -50 -73 -105 -36 -55 -157 -239 -270 -410
-112 -170 -256 -389 -320 -485 -205 -312 -387 -589 -566 -860 -97 -146 -209
-317 -250 -380 -42 -63 -175 -266 -297 -450 -278 -421 -516 -783 -639 -970
-52 -80 -111 -169 -131 -197 l-36 -53 -278 418 c-152 229 -344 518 -425 642
-82 124 -153 233 -160 242 -54 80 -196 293 -501 753 -500 754 -607 915 -609
915 -1 0 1 -4681 3 -4695 1 -7 120 -10 349 -10 l347 0 2 125 c4 304 13 991 19
1395 3 242 7 506 8 587 0 82 4 148 7 148 5 0 207 -287 281 -400 9 -14 61 -89
115 -167 54 -78 141 -204 193 -280 52 -76 107 -156 122 -178 16 -22 59 -85 97
-140 37 -55 122 -179 189 -275 66 -96 154 -223 194 -282 40 -59 75 -107 78
-107 3 0 36 48 75 107 38 59 141 217 230 352 88 135 194 297 235 360 41 63
138 210 215 327 77 117 183 279 237 360 90 138 256 391 557 850 69 106 178
273 242 370 64 98 173 264 241 368 69 105 163 249 210 320 223 341 281 430
370 565 52 80 148 226 213 325 64 99 119 181 120 183 2 2 571 4 1264 4 l1260
1 42 46 c23 25 85 93 138 151 53 57 123 134 156 170 33 35 67 72 75 81 8 8 53
58 100 109 47 52 97 107 113 122 15 16 28 34 30 40 1 7 -514 11 -1781 12 -981
0 -1787 -1 -1791 -4z"/>
<path d="M5927 7164 c-1 -2 -166 -6 -367 -9 -321 -6 -468 -10 -561 -14 l-27
-1 0 -2220 -1 -2220 334 0 c312 0 335 1 336 18 1 22 1 3715 0 3723 -1 3 -11
11 -23 17 -30 14 -71 13 632 16 619 2 658 0 800 -46 159 -51 282 -136 366
-254 81 -113 115 -215 120 -359 2 -79 -1 -112 -20 -201 -2 -12 -19 -56 -36
-98 -70 -168 -204 -300 -370 -366 -70 -28 -176 -48 -232 -45 -24 2 -101 6
-173 10 -71 3 -150 8 -175 10 -138 14 -161 14 -153 2 14 -23 143 -210 593
-860 476 -688 870 -1257 1005 -1452 l79 -116 389 2 c213 2 386 6 385 10 -3 7
-207 276 -652 859 -65 85 -156 205 -202 265 -46 61 -147 193 -225 295 -271
355 -344 452 -358 471 -12 18 -11 20 20 31 19 6 86 38 149 70 413 209 675 584
735 1052 14 108 5 288 -21 413 -94 463 -424 819 -884 954 -133 40 -179 42
-853 43 -334 1 -609 1 -610 0z"/>
<path d="M4324 6008 c-16 -24 -49 -71 -74 -104 -25 -34 -52 -72 -60 -84 -8
-12 -22 -32 -31 -44 -22 -29 -379 -526 -469 -652 l-35 -49 0 -1170 c-1 -643 0
-1175 2 -1180 2 -6 127 -10 351 -10 l347 0 1 1668 c1 917 0 1667 -1 1667 -1 0
-15 -19 -31 -42z"/>
<path d="M1940 2185 c0 -65 3 -115 8 -111 4 4 7 11 8 14 2 34 19 73 37 89 36
33 78 41 198 40 l114 -2 0 -407 c0 -394 -1 -408 -21 -434 -11 -15 -36 -33 -55
-40 -30 -11 -14 -13 125 -13 146 -1 182 2 130 12 -80 16 -79 6 -80 475 l-1
412 106 0 c167 0 224 -26 237 -110 4 -22 9 -38 13 -35 6 7 10 206 4 218 -3 4
-18 -4 -34 -18 l-30 -25 -354 3 -353 2 -26 24 -26 24 0 -118z"/>
<path d="M4328 2265 c-123 -31 -199 -126 -201 -251 -1 -118 51 -182 226 -281
153 -86 193 -128 201 -215 9 -89 -50 -163 -142 -177 -133 -20 -250 52 -283
173 -6 21 -13 36 -15 33 -5 -4 -7 -145 -4 -222 l1 -30 14 33 c16 36 20 37 56
18 14 -7 39 -17 55 -21 16 -4 36 -10 44 -13 8 -2 49 -4 90 -4 186 -1 304 130
268 299 -14 62 -84 131 -201 198 -200 114 -242 172 -216 296 21 98 107 153
213 138 60 -9 108 -52 141 -124 l23 -50 0 108 c0 103 -1 107 -19 91 -13 -12
-26 -14 -51 -8 -18 4 -40 9 -48 11 -39 9 -112 8 -152 -2z"/>
<path d="M8459 2270 c-79 -14 -166 -88 -199 -168 -18 -46 -16 -139 4 -186 19
-46 97 -123 152 -151 64 -32 188 -113 211 -137 33 -35 51 -88 46 -136 -4 -57
-25 -95 -65 -124 -29 -20 -45 -23 -123 -23 -88 0 -92 1 -140 36 -37 26 -58 52
-82 100 -29 57 -33 61 -34 34 -1 -53 -1 -169 1 -195 2 -24 2 -23 16 8 8 17 16
32 19 32 3 0 33 -12 68 -26 86 -36 209 -38 285 -4 91 40 144 120 144 220 1
106 -50 168 -216 262 -162 91 -203 135 -210 224 -5 63 13 113 55 155 60 60
161 68 235 17 30 -21 66 -69 70 -95 1 -6 6 -19 12 -29 7 -12 10 13 10 84 0 56
-4 105 -9 108 -5 3 -9 -2 -9 -10 0 -19 -20 -20 -75 -5 -48 14 -117 17 -166 9z"/>
<path d="M1498 2193 c-15 -43 -78 -236 -141 -430 -64 -193 -123 -363 -133
-378 -10 -15 -36 -36 -58 -46 l-41 -18 120 0 c106 1 116 2 87 13 -65 23 -65
48 -1 244 l41 122 161 -2 160 -3 49 -145 c64 -193 64 -193 -17 -217 -35 -9
-18 -11 120 -12 l160 -1 -41 19 c-55 25 -60 37 -230 528 l-139 403 -36 0 c-36
0 -36 0 -61 -77z m102 -238 c39 -114 70 -211 70 -216 0 -5 -65 -9 -144 -9
l-144 0 44 138 c24 75 56 174 70 220 14 46 28 82 30 79 2 -2 36 -97 74 -212z"/>
<path d="M3553 2178 c-17 -51 -79 -241 -138 -422 -59 -181 -117 -345 -128
-364 -12 -21 -37 -41 -61 -52 l-41 -19 119 0 c112 -1 140 4 85 14 -60 12 -60
53 1 239 l41 126 162 -2 161 -3 48 -145 c26 -80 48 -155 48 -166 0 -28 -20
-44 -62 -51 -66 -10 -38 -13 118 -12 149 0 157 1 124 15 -19 8 -45 29 -57 47
-12 17 -58 138 -103 267 -45 129 -97 280 -116 335 -20 55 -49 142 -67 193
l-31 92 -36 0 -37 0 -30 -92z m107 -222 c38 -114 70 -212 70 -217 0 -5 -64 -9
-144 -9 l-144 0 34 108 c19 59 50 158 70 220 20 63 38 112 40 110 2 -3 35 -98
74 -212z"/>
<path d="M53 2243 c4 -3 17 -7 30 -9 12 -1 25 -3 29 -3 3 -1 21 -13 38 -28
l31 -26 -5 -96 c-4 -53 -8 -136 -11 -186 -26 -490 -28 -507 -64 -539 -10 -9
-32 -21 -47 -26 -20 -6 11 -8 96 -8 121 0 124 0 88 15 -22 9 -42 27 -51 46
-16 31 -16 43 -3 292 3 55 8 161 12 235 5 118 10 194 14 210 1 6 50 -114 85
-210 13 -36 62 -166 110 -290 48 -124 91 -240 96 -257 6 -18 14 -33 18 -33 4
0 43 91 86 203 101 262 173 447 185 472 4 11 16 43 26 70 18 51 33 77 35 60 3
-24 19 -332 25 -495 3 -74 7 -153 8 -175 5 -79 -10 -105 -79 -132 -25 -10 -4
-12 128 -12 105 -1 156 2 152 9 -4 6 -10 8 -15 5 -13 -8 -55 14 -68 36 -13 20
-17 67 -27 284 -3 66 -8 170 -11 230 -11 210 -12 290 -2 308 5 10 28 27 51 37
l42 19 -104 -2 -104 -2 -47 -125 c-26 -69 -87 -226 -135 -350 -48 -124 -91
-236 -97 -250 -8 -22 -27 22 -144 330 -74 195 -140 365 -146 378 -11 21 -17
22 -121 22 -61 0 -107 -3 -104 -7z"/>
<path d="M2830 2239 c0 -5 4 -8 9 -4 5 3 21 0 35 -6 54 -25 54 -24 53 -439 0
-257 -3 -393 -11 -409 -6 -13 -29 -32 -51 -42 l-40 -19 155 1 c131 0 150 2
123 12 -18 7 -43 22 -55 35 l-23 22 0 389 c0 435 0 433 67 451 21 6 38 13 38
15 0 3 -67 5 -150 5 -99 0 -150 -4 -150 -11z"/>
<path d="M5185 2234 c69 -24 67 -13 67 -447 -1 -366 -2 -392 -19 -415 -11 -14
-35 -31 -54 -38 -30 -11 -14 -12 121 -13 143 0 158 4 97 23 -36 11 -45 62 -45
253 l0 181 39 -3 c90 -9 145 -61 253 -243 42 -70 89 -145 104 -167 l28 -40 94
-2 95 -2 -41 18 c-49 23 -80 61 -169 211 -84 141 -110 176 -157 210 l-37 27
39 13 c156 52 202 254 85 374 -65 68 -103 76 -339 75 -187 -1 -198 -2 -161
-15z m326 -22 c111 -44 164 -203 106 -313 -32 -60 -92 -90 -191 -96 l-75 -4 1
208 c1 136 5 210 12 215 14 10 115 3 147 -10z"/>
<path d="M6013 2243 c4 -3 19 -8 33 -9 66 -7 70 -33 69 -467 -1 -358 -2 -377
-20 -397 -11 -12 -33 -28 -50 -35 -26 -12 9 -13 251 -14 l280 -1 11 58 c6 31
14 65 18 75 14 34 -10 16 -28 -21 -30 -63 -64 -77 -199 -79 -170 -4 -162 -15
-165 227 l-2 191 117 -2 c64 -1 126 -6 139 -12 12 -5 29 -25 38 -43 9 -19 18
-34 20 -34 3 0 5 48 5 108 l0 107 -22 -36 c-27 -47 -66 -59 -196 -59 l-100 0
0 210 1 211 116 -2 c163 -2 231 -30 231 -95 0 -13 3 -24 8 -24 4 0 7 34 7 75
l1 75 -285 0 c-156 0 -281 -3 -278 -7z"/>
<path d="M6642 2245 c3 -3 18 -8 34 -11 16 -2 40 -13 54 -23 14 -10 87 -109
163 -221 l137 -204 0 -190 c0 -228 -1 -232 -80 -264 -19 -8 14 -11 130 -11
135 1 151 2 121 13 -68 24 -71 37 -72 265 l0 203 73 111 c169 259 195 288 288
326 19 7 -6 10 -100 10 -111 0 -123 -1 -105 -14 39 -28 44 -35 39 -61 -5 -28
-194 -316 -210 -320 -5 -2 -29 29 -54 68 -25 38 -71 106 -102 151 -77 107 -77
139 -3 165 23 8 -9 11 -144 11 -96 1 -172 -1 -169 -4z"/>
<path d="M7594 2236 c70 -22 70 -21 70 -458 l1 -387 -25 -26 c-13 -14 -38 -29
-54 -34 -20 -6 69 -10 252 -10 l282 -1 10 24 c5 13 12 43 15 67 4 24 9 47 11
51 3 5 0 8 -5 8 -6 0 -11 -7 -11 -15 0 -26 -60 -84 -98 -95 -20 -5 -81 -10
-134 -10 -85 0 -101 3 -118 20 -11 11 -21 23 -21 28 -1 4 -3 89 -4 190 l-2
182 109 0 c129 0 170 -13 186 -59 6 -17 13 -31 16 -31 4 0 6 48 6 108 l-1 107
-19 -36 c-11 -20 -27 -40 -37 -44 -10 -4 -72 -10 -139 -13 l-120 -4 -1 211 0
212 117 -2 c64 -1 129 -4 144 -6 38 -8 86 -56 86 -87 0 -14 3 -26 8 -26 4 0 7
34 8 75 l0 75 -285 -1 c-238 -1 -280 -3 -247 -13z"/>
</g>
</svg>
